<svg xmlns="http://www.w3.org/2000/svg" viewBox="0 0 223.5 162.98"><defs><style>.cls-1{fill:#8bbde7;}</style></defs><g id="Calque_2" data-name="Calque 2"><g id="Calque_1-2" data-name="Calque 1"><path class="cls-1" d="M172.55,0H133.24c-6.56,0-12.72,0-18.53,0h-.56l-.78,0-.27,0-.4,0H23.21A20.29,20.29,0,0,0,13,2.81,23.75,23.75,0,0,0,0,24V139.2a23.77,23.77,0,0,0,16.83,22.73,20.45,20.45,0,0,0,5.61,1h.22l.55,0H112.7l.25,0q.6,0,1.2,0a23.78,23.78,0,0,0,23.77-23.77V101.79c1.12.08,2.26.13,3.4.13h31.23A51,51,0,0,0,223.5,51h0A51,51,0,0,0,172.55,0Zm-125,40.82H90.38V61.07H47.54Zm0,61.06H90.38v20.22H47.54ZM184.49,51h0A21.09,21.09,0,0,1,163.4,72.08H138.9a9.83,9.83,0,0,1-9.51-9.83V39.73a9.83,9.83,0,0,1,9.51-9.83h24.5A21.09,21.09,0,0,1,184.49,51Z"/></g></g></svg>